<svg width="129" height="44" viewBox="0 0 129 44" fill="none" xmlns="http://www.w3.org/2000/svg">
<path d="M52.7061 30.8089V12.9203H55.9463V28.0931H63.8258V30.8089H52.7061Z" fill="#08061F"/>
<path d="M68.8731 31.0792C68.0859 31.0911 67.3052 30.935 66.5832 30.6213C65.9289 30.333 65.3722 29.8613 64.9802 29.2634C64.5701 28.5977 64.3654 27.8259 64.3917 27.0445C64.3671 26.3929 64.5114 25.746 64.8108 25.1668C65.0834 24.6784 65.4779 24.2689 65.9557 23.9783C66.4635 23.6676 67.0156 23.4359 67.593 23.2913C68.2147 23.135 68.8468 23.0233 69.4845 22.957C70.2691 22.8746 70.9065 22.7982 71.3965 22.728C71.7705 22.6969 72.1344 22.5902 72.4659 22.4143C72.5768 22.3432 72.6665 22.2437 72.7257 22.126C72.7849 22.0084 72.8114 21.877 72.8025 21.7457V21.693C72.8197 21.4115 72.7764 21.1296 72.6757 20.8662C72.575 20.6027 72.4192 20.3639 72.2186 20.1656C71.827 19.8038 71.266 19.6229 70.5309 19.6229C69.8817 19.5894 69.239 19.767 68.699 20.129C68.2778 20.4244 67.9579 20.8427 67.7831 21.3266L64.8291 20.9076C65.0322 20.1356 65.4259 19.4269 65.9741 18.8467C66.5248 18.288 67.1972 17.864 67.9388 17.6078C68.7649 17.3225 69.6341 17.1823 70.508 17.1934C71.1582 17.1946 71.806 17.2715 72.4384 17.4223C73.0621 17.5671 73.6557 17.8197 74.1925 18.1688C74.731 18.5238 75.1713 19.009 75.4725 19.5794C75.8181 20.2698 75.985 21.0359 75.958 21.8075V30.7861H72.917V28.9428H72.814C72.368 29.7982 71.6144 30.4529 70.705 30.7747C70.1177 30.9858 69.4971 31.089 68.8731 31.0792ZM69.686 28.7573C70.2594 28.7704 70.827 28.6397 71.337 28.3772C71.7804 28.1432 72.1529 27.7944 72.4155 27.3673C72.6679 26.9538 72.7996 26.4779 72.7956 25.9934V24.4134C72.6438 24.5195 72.4738 24.5971 72.2942 24.6424C72.0334 24.7171 71.7689 24.7782 71.5018 24.8256C71.211 24.8782 70.9225 24.924 70.6386 24.9652L69.8966 25.0706C69.463 25.1254 69.0373 25.2307 68.628 25.3843C68.2876 25.5088 67.9843 25.7175 67.7464 25.9911C67.4909 26.3441 67.3809 26.7818 67.4393 27.2137C67.4977 27.6455 67.72 28.0384 68.0602 28.3108C68.5427 28.6246 69.1108 28.7807 69.686 28.7573Z" fill="#08061F"/>
<path d="M80.8335 22.9477V30.8089H77.6711V12.9203H80.7625V19.6709H80.9205C81.2152 18.9387 81.7255 18.3134 82.3837 17.8779C83.0432 17.4382 83.8829 17.2184 84.9026 17.2184C85.7517 17.198 86.5915 17.3993 87.3391 17.8023C88.0331 18.1995 88.5917 18.7963 88.942 19.5152C89.346 20.3734 89.5421 21.3148 89.5145 22.263V30.8066H86.3704V22.7554C86.3704 21.8531 86.1414 21.1501 85.6835 20.6464C85.2255 20.1426 84.5774 19.8907 83.7393 19.8907C83.2175 19.8821 82.7021 20.0066 82.2418 20.2525C81.8042 20.4931 81.4461 20.856 81.2113 21.2967C80.9485 21.8065 80.8186 22.3744 80.8335 22.9477Z" fill="#08061F"/>
<path d="M96.2491 31.0448C95.2472 31.063 94.2624 30.7842 93.4188 30.2433C92.5509 29.6597 91.8664 28.8419 91.4449 27.8847C90.9625 26.8543 90.7213 25.6025 90.7213 24.1293C90.7213 22.6561 90.9671 21.3967 91.4587 20.351C91.8857 19.3978 92.5791 18.5883 93.4554 18.0199C94.2906 17.4905 95.2603 17.2123 96.2491 17.2184C96.9181 17.1926 97.5834 17.3285 98.1886 17.6146C98.6521 17.8448 99.0623 18.1692 99.3931 18.5672C99.6582 18.8901 99.8885 19.2401 100.08 19.6113H100.211V12.9203H103.394V30.8089H100.284V28.6953H100.094C99.8982 29.0662 99.6608 29.4135 99.3863 29.7304C99.0449 30.1189 98.6291 30.435 98.1635 30.6601C97.5641 30.9359 96.9085 31.0677 96.2491 31.0448ZM97.1307 28.4503C97.7469 28.4681 98.3509 28.276 98.8436 27.9053C99.3383 27.5085 99.7107 26.9798 99.9175 26.3803C100.176 25.6452 100.301 24.8695 100.284 24.0904C100.301 23.3206 100.178 22.5541 99.9221 21.828C99.7177 21.2384 99.3481 20.7202 98.8573 20.3349C98.3421 19.9843 97.7327 19.7984 97.1096 19.8016C96.4864 19.8049 95.879 19.9973 95.3675 20.3533C94.8756 20.7479 94.5062 21.2745 94.3027 21.8715C94.0519 22.5838 93.9302 23.3352 93.9432 24.0904C93.9308 24.8531 94.0533 25.612 94.305 26.3322C94.5127 26.9376 94.8855 27.473 95.3812 27.8778C95.8806 28.2653 96.4989 28.4676 97.1307 28.4503Z" fill="#08061F"/>
<path d="M109.159 31.0792C108.372 31.0911 107.592 30.935 106.87 30.6213C106.215 30.333 105.659 29.8613 105.267 29.2634C104.856 28.5981 104.651 27.826 104.678 27.0445C104.653 26.3929 104.798 25.746 105.097 25.1668C105.37 24.6787 105.765 24.2693 106.242 23.9783C106.751 23.6675 107.304 23.4359 107.882 23.2913C108.503 23.1352 109.134 23.0235 109.771 22.957C110.559 22.8746 111.195 22.799 111.685 22.728C112.059 22.6966 112.423 22.5899 112.755 22.4143C112.865 22.3432 112.955 22.2437 113.014 22.126C113.074 22.0084 113.1 21.877 113.091 21.7457V21.693C113.108 21.4113 113.065 21.1291 112.964 20.8656C112.863 20.6021 112.706 20.3634 112.505 20.1656C112.116 19.8038 111.554 19.6229 110.82 19.6229C110.17 19.5894 109.528 19.767 108.988 20.129C108.566 20.4244 108.247 20.8427 108.072 21.3266L105.118 20.9076C105.321 20.1356 105.715 19.4269 106.263 18.8467C106.814 18.288 107.486 17.864 108.227 17.6078C109.054 17.3225 109.923 17.1823 110.797 17.1934C111.447 17.1946 112.095 17.2715 112.727 17.4223C113.351 17.5671 113.944 17.8197 114.481 18.1688C115.02 18.5238 115.46 19.009 115.761 19.5794C116.107 20.2698 116.274 21.0359 116.247 21.8075V30.7861H113.194V28.9428H113.091C112.645 29.799 111.89 30.4538 110.98 30.7747C110.396 30.9847 109.78 31.0879 109.159 31.0792ZM109.988 28.7573C110.562 28.7704 111.129 28.6397 111.639 28.3772C112.083 28.1432 112.455 27.7944 112.718 27.3673C112.969 26.9533 113.101 26.4777 113.098 25.9934V24.4134C112.945 24.519 112.774 24.5965 112.594 24.6424C112.334 24.7171 112.071 24.7782 111.804 24.8256C111.513 24.8782 111.225 24.924 110.941 24.9652L110.197 25.0706C109.764 25.1254 109.339 25.2307 108.93 25.3843C108.59 25.5081 108.286 25.717 108.049 25.9911C107.793 26.3441 107.683 26.7818 107.742 27.2137C107.8 27.6455 108.022 28.0384 108.363 28.3108C108.845 28.6249 109.413 28.781 109.988 28.7573Z" fill="#08061F"/>
<path d="M121.818 31.0794C121.031 31.0912 120.25 30.9351 119.528 30.6214C118.874 30.3331 118.317 29.8615 117.925 29.2635C117.515 28.5978 117.311 27.826 117.337 27.0446C117.312 26.393 117.457 25.7462 117.756 25.1669C118.029 24.679 118.423 24.2697 118.901 23.9785C119.409 23.6677 119.961 23.4361 120.538 23.2915C121.16 23.1354 121.792 23.0236 122.43 22.9572C123.214 22.8747 123.852 22.7984 124.342 22.7282C124.716 22.6971 125.079 22.5904 125.411 22.4145C125.522 22.3434 125.612 22.2438 125.671 22.1262C125.73 22.0086 125.757 21.8772 125.748 21.7458V21.6931C125.765 21.4116 125.722 21.1297 125.621 20.8663C125.52 20.6029 125.364 20.364 125.164 20.1658C124.772 19.804 124.211 19.6231 123.476 19.6231C122.827 19.5891 122.184 19.7667 121.644 20.1291C121.223 20.4248 120.903 20.843 120.728 21.3268L117.774 20.9215C117.976 20.149 118.37 19.4401 118.919 18.8606C119.47 18.3018 120.142 17.8779 120.884 17.6217C121.71 17.3366 122.579 17.1964 123.453 17.2073C124.103 17.2085 124.751 17.2854 125.383 17.4362C126.008 17.5807 126.602 17.8334 127.14 18.1827C127.677 18.5385 128.117 19.0235 128.418 19.5933C128.765 20.2832 128.932 21.0496 128.903 21.8214V30.8H125.864V28.9567H125.759C125.313 29.8121 124.559 30.4668 123.65 30.7886C123.062 30.9951 122.441 31.0936 121.818 31.0794ZM122.638 28.7575C123.211 28.7712 123.779 28.6405 124.289 28.3773C124.733 28.144 125.105 27.7951 125.367 27.3675C125.62 26.9539 125.752 26.478 125.748 25.9936V24.4135C125.596 24.5197 125.426 24.5973 125.246 24.6425C124.986 24.7172 124.722 24.7784 124.456 24.8257C124.163 24.8784 123.874 24.9242 123.591 24.9654L122.849 25.0707C122.416 25.1253 121.991 25.2306 121.582 25.3844C121.241 25.5083 120.937 25.7171 120.698 25.9913C120.442 26.3443 120.333 26.7824 120.391 27.2144C120.45 27.6465 120.673 28.0392 121.014 28.3109C121.496 28.6251 122.063 28.7812 122.638 28.7575Z" fill="#08061F"/>
<path d="M32.528 0.138428H11.9877C5.5859 0.138428 0.39624 5.32808 0.39624 11.7298V32.2702C0.39624 38.6719 5.5859 43.8616 11.9877 43.8616H32.528C38.9297 43.8616 44.1194 38.6719 44.1194 32.2702V11.7298C44.1194 5.32808 38.9297 0.138428 32.528 0.138428Z" fill="#08061F"/>
<path d="M14.9092 32.1077C14.1661 32.0913 13.4352 31.9156 12.7659 31.5924C9.37453 30.0605 9.77297 23.5778 11.8705 18.2722C13.7024 13.626 16.3175 11.2422 18.6898 12.0482C20.1301 12.5383 20.8537 13.713 20.84 15.5403C20.8286 16.9761 20.382 18.6569 19.924 20.4384C19.1844 23.2687 18.4219 26.186 19.5806 27.6744C21.4106 26.1554 23.4477 24.9048 25.6304 23.9602C28.0005 22.9367 31.1926 22.4214 32.9787 23.5755C33.3789 23.8283 33.7071 24.1801 33.9313 24.597C34.1556 25.0138 34.2684 25.4815 34.2587 25.9547C34.2794 27.3287 33.0337 29.5064 30.6865 30.8047C28.8546 31.8146 25.0213 32.9732 19.5943 29.5705L19.4157 29.7216C17.8998 31.0131 16.6129 32.1077 14.9092 32.1077ZM17.7601 13.3581C16.3198 13.3581 14.5543 15.4441 13.2307 18.8103C11.3873 23.4771 11.0026 29.1926 13.3681 30.2597C15.429 31.1894 16.3793 30.3857 18.4539 28.6202C16.8052 26.5936 17.7051 23.1519 18.5089 20.0674C19.4844 16.3326 19.9515 14.0221 18.2181 13.4267C18.0702 13.3789 17.9155 13.3557 17.7601 13.3581ZM20.7828 28.5812C24.197 30.5918 27.4395 30.9307 29.9789 29.527C31.836 28.4988 32.8093 26.8043 32.7955 25.9776C32.8082 25.7453 32.7581 25.5139 32.6506 25.3076C32.543 25.1013 32.3819 24.9278 32.1841 24.8052C31.0666 24.0816 28.5546 24.2923 26.2098 25.3044C24.259 26.1425 22.4329 27.2451 20.7828 28.5812Z" fill="white"/>
</svg>
