<svg width="108" height="82" viewBox="0 0 108 82" fill="none" xmlns="http://www.w3.org/2000/svg">
<path d="M83.4902 44.5694C79.3574 50.7343 69.7571 52.9654 63.6626 48.7577C57.5682 44.5512 57.435 35.5962 61.4226 29.3339C66.659 21.1084 82.297 16.1151 84.6084 17.3841C87.3482 18.8894 90.5395 34.0507 83.4902 44.5682V44.5694Z" fill="#686A6B"/>
<path d="M74.2807 39.5067C73.8426 39.5067 73.4179 39.2741 73.1903 38.8612C71.8858 36.4961 72.1677 31.4334 72.204 30.8635C72.2488 30.1717 72.8382 29.6481 73.528 29.6919C74.2154 29.737 74.7357 30.3325 74.6922 31.0242C74.5736 32.8937 74.6534 36.3439 75.3711 37.6434C75.7051 38.2486 75.4885 39.0123 74.8858 39.3484C74.6946 39.4556 74.4864 39.5067 74.2819 39.5067H74.2807Z" fill="#08061F"/>
<path d="M47.3446 44.0896C47.0142 44.0896 46.6839 43.958 46.4394 43.6974C45.9662 43.1944 45.988 42.4004 46.4878 41.9242C48.2873 40.2094 49.1647 38.0489 49.9392 36.1417C50.8917 33.7973 51.8755 31.3726 54.5222 31.2289C57.5851 31.0596 58.4528 34.2382 58.9696 36.1369C59.0301 36.3573 59.1027 36.6252 59.1777 36.8773C59.3448 36.5217 59.5178 36.104 59.6533 35.7715C60.5089 33.6938 61.6804 30.8489 64.5497 30.8489C66.9592 30.8489 67.9782 33.1519 68.7975 35.003C69.3045 36.149 69.8297 37.3353 70.5619 37.9357C71.0956 38.3729 71.1755 39.1633 70.741 39.7004C70.3065 40.2374 69.5211 40.3178 68.9875 39.8806C67.7942 38.9027 67.1177 37.373 66.5211 36.0236C65.7865 34.3649 65.2879 33.3577 64.5497 33.3577C63.4339 33.3577 62.7441 34.8204 61.9563 36.7324C61.3052 38.3144 60.6893 39.8087 59.2855 39.9987C58.8764 40.0548 57.8526 40.0365 57.1931 38.6859C56.9353 38.1573 56.755 37.4972 56.565 36.7982C55.8425 34.1432 55.379 33.6987 54.6577 33.7328C53.6835 33.7864 53.1995 34.7461 52.2471 37.0905C51.4205 39.1255 50.3919 41.6587 48.2026 43.7461C47.9618 43.9763 47.6532 44.0896 47.3458 44.0896H47.3446Z" fill="#08061F"/>
<path d="M13.6544 75.8602C12.8557 75.8602 12.0328 75.7092 11.1893 75.4059C9.17193 74.6825 7.69673 73.2211 6.92221 71.1775C5.10573 66.3827 7.36635 59.3154 10.0892 54.299C11.706 51.3201 14.13 48.6103 17.2959 46.2416C19.4294 44.645 21.897 43.2213 24.523 42.0643C24.6671 40.3191 24.7917 38.5215 24.8958 36.6801C25.7296 21.9755 28.4392 12.917 33.177 8.98695C35.3215 7.20886 37.8641 6.50615 40.7346 6.8983C42.4325 7.13092 43.731 7.89452 44.5951 9.16963C46.3982 11.8295 45.4809 15.7449 45.4422 15.9105C45.28 16.584 44.606 16.9969 43.9367 16.8337C43.2687 16.6705 42.8573 15.9934 43.0194 15.3199C43.2167 14.4869 43.5107 12.0134 42.5329 10.5787C42.0767 9.90888 41.3784 9.51916 40.3994 9.38519C38.215 9.08682 36.3707 9.5898 34.7624 10.9234C30.6478 14.3371 28.1657 23.0509 27.3839 36.8238C27.3113 38.1123 27.2193 39.5263 27.1044 41.0279C27.6441 40.8245 28.1681 40.6284 28.6776 40.4372C29.9725 39.9513 31.1669 39.5043 32.2561 39.0854C32.2573 38.5032 32.342 37.9053 32.5126 37.3C33.2545 34.6596 35.5671 32.3554 37.8943 31.9401C39.3381 31.682 40.6414 32.1959 41.4704 33.3468C42.2497 34.4307 42.1977 35.377 42.0162 35.9798C41.4922 37.7226 39.2848 38.9758 35.1303 40.6503C35.359 41.0937 35.6918 41.5102 36.1262 41.8999C36.816 42.5173 37.5058 42.767 38.2961 42.6878C40.1477 42.5027 42.4845 40.5432 45.2413 36.8628C45.6552 36.3099 46.437 36.199 46.9864 36.6168C47.5358 37.0333 47.6459 37.82 47.2308 38.3729C43.9476 42.7548 41.186 44.919 38.5418 45.1833C37.052 45.3331 35.6821 44.8581 34.4695 43.7742C33.7277 43.1104 33.1674 42.3651 32.7958 41.5625C31.7986 41.9437 30.7167 42.3493 29.5477 42.7877C28.8664 43.0435 28.1584 43.309 27.4251 43.5854C27.2399 43.6548 27.056 43.7267 26.8732 43.7985C26.4327 48.6627 25.7502 54.1188 24.6961 59.0463C22.8978 67.4508 20.4568 72.5829 17.2341 74.7337C16.1099 75.4839 14.9118 75.8602 13.6532 75.8602H13.6544ZM24.2629 44.9446C18.8219 47.5825 14.5439 51.325 12.276 55.5035C9.19008 61.1897 8.0029 66.9917 9.25059 70.2848C9.77097 71.6585 10.6786 72.561 12.0243 73.0432C13.439 73.5499 14.6928 73.4196 15.8557 72.6438C19.1148 70.4675 21.137 63.7606 22.2588 58.5189C23.0817 54.6765 23.7582 50.073 24.2617 44.9446H24.2629ZM38.6204 34.3844C38.5321 34.3844 38.4365 34.3929 38.33 34.4124C37.1029 34.6316 35.4364 36.1187 34.9124 37.9844C34.9076 38.0027 34.9028 38.0222 34.8967 38.0405C35.6204 37.7409 36.2727 37.4547 36.8524 37.1782C39.1686 36.076 39.5656 35.4671 39.6285 35.2564C39.6624 35.1419 39.5317 34.9337 39.4494 34.8204C39.2981 34.6109 39.0706 34.3844 38.6192 34.3844H38.6204Z" fill="#08061F"/>
<path d="M40.927 54.4451C40.5724 54.4451 40.2214 54.2941 39.9746 54.0006C39.5304 53.4721 39.5946 52.6817 40.1198 52.2335C40.2626 52.1117 43.6729 49.2314 49.6838 46.6203C55.2144 44.2187 64.0898 41.6112 74.9693 42.8206C75.6531 42.8961 76.1468 43.516 76.0718 44.2053C75.9967 44.8934 75.3796 45.3903 74.6958 45.3148C64.3996 44.17 55.9973 46.6252 50.7609 48.8868C45.0622 51.3481 41.7644 54.1212 41.7318 54.1492C41.4982 54.3477 41.2114 54.4451 40.9282 54.4451H40.927Z" fill="#08061F"/>
<path d="M73.8414 28.5472C74.6094 28.5472 75.2319 27.9207 75.2319 27.1479C75.2319 26.375 74.6094 25.7485 73.8414 25.7485C73.0735 25.7485 72.4509 26.375 72.4509 27.1479C72.4509 27.9207 73.0735 28.5472 73.8414 28.5472Z" fill="#08061F"/>
</svg>
