<svg width="144" height="36" viewBox="0 0 144 36" fill="none" xmlns="http://www.w3.org/2000/svg">
<path d="M40.9991 18.2658V9.38373C40.9991 8.33524 41.1154 8.23973 42.1414 8.21274C44.7606 8.12554 47.2635 8.56985 49.6222 9.8052C53.2794 11.7236 55.2974 14.8774 56.0008 18.9758C56.3174 20.7759 56.3695 22.6154 55.9186 24.4072C54.9988 28.0406 52.562 29.9839 49.1492 30.804C46.7605 31.3791 44.3397 31.0822 41.921 31.1424C41.2897 31.1569 41.1915 30.696 41.1575 30.1458C40.933 26.3069 41.0553 22.4618 40.9991 18.2658ZM52.2213 21.5482C52.229 20.0756 51.9289 18.6186 51.3416 17.2775C50.3155 14.9438 48.4679 13.5901 46.1694 12.8427C45.3537 12.5769 44.967 12.9091 44.967 13.7978C44.967 17.9045 44.9429 22.0133 45.0772 26.118C45.0972 26.7741 45.3758 27.0793 45.999 27.0336C46.494 26.9962 46.989 26.936 47.4819 26.8883C50.6495 26.5796 52.2293 24.7996 52.2213 21.5482Z" fill="#08061F"/>
<path d="M95.2763 18.689C95.1881 21.5023 94.7172 24.2284 92.9136 26.4686C90.4167 29.5829 86.2825 30.1933 83.1443 27.6147C79.7516 24.8325 79.956 19.9078 82.1123 17.3956C83.7916 15.4335 86.046 15.0183 88.4548 15.3193C89.0233 15.4229 89.5865 15.5559 90.1421 15.718C90.3004 15.7533 90.4968 15.9256 90.6431 15.718C90.7613 15.5415 90.6531 15.3567 90.577 15.1782C89.8756 13.5608 88.5871 12.7884 86.9699 12.4646C85.7339 12.2177 84.4832 12.0575 83.2265 11.9849C82.6253 11.9497 82.3407 11.686 82.3327 11.0984C82.3187 10.3074 82.3167 9.51633 82.3327 8.72737C82.3447 8.14188 82.6213 7.82629 83.2265 7.85536C85.7514 7.97786 88.2784 8.20001 90.571 9.4146C92.9757 10.6832 94.2723 12.8881 94.9175 15.529C95.1949 16.5567 95.3159 17.6228 95.2763 18.689ZM87.4608 25.0588C88.0159 25.0548 88.558 24.8847 89.0219 24.5689C90.1181 23.8775 90.5189 22.7397 90.8996 21.5604C91.1 20.9687 90.8996 20.6178 90.4267 20.3458C89.5029 19.806 88.5109 19.4095 87.4528 19.3763C86.5671 19.3451 85.6092 19.4282 85.0481 20.2753C84.7328 20.7189 84.548 21.2474 84.5156 21.7973C84.4833 22.3472 84.6048 22.895 84.8657 23.375C85.4068 24.4007 86.2685 25.0464 87.4709 25.0588H87.4608Z" fill="#08061F"/>
<path d="M100.575 23.2299C100.3 24.4528 100.052 25.6134 99.7852 26.7595C99.3844 28.5035 98.8694 30.2205 98.3043 31.9209C98.0859 32.5749 97.7031 32.685 97.14 32.4877C96.4466 32.2386 95.7553 31.9728 95.0659 31.7133C94.4888 31.4953 94.3245 31.1195 94.5309 30.4946C95.5937 27.3326 96.3758 24.0768 96.8675 20.7675C97.4512 16.8364 97.5964 12.8488 97.3003 8.88328C97.2093 7.61434 97.0515 6.3515 96.8274 5.10042C96.7352 4.60005 96.9997 4.31561 97.4286 4.18896C98.2302 3.94397 99.0458 3.71144 99.8634 3.52043C100.424 3.38963 100.665 3.76334 100.771 4.27824C101.102 5.90123 101.304 7.54983 101.372 9.20717C101.424 10.4529 101.617 11.6986 101.573 12.9713C102.396 12.1533 102.945 11.1505 103.477 10.1394C103.707 9.68006 103.914 9.20884 104.098 8.72756C104.316 8.19398 104.649 7.98428 105.22 8.16491C105.869 8.37253 106.541 8.51164 107.198 8.70057C107.999 8.93311 108.18 9.26115 107.879 10.0875C106.817 12.9454 105.16 15.5262 103.028 17.647C102.004 18.6851 102.006 18.8117 103.05 19.8415C104.545 21.3136 106.39 22.0631 108.348 22.5759C109.32 22.8313 109.406 22.9392 109.264 23.9732C109.172 24.6438 109.064 25.3144 108.947 25.9809C108.835 26.5726 108.547 26.8737 107.893 26.7221C105.474 26.176 103.22 25.2687 101.242 23.6908C101.05 23.5476 100.847 23.4188 100.575 23.2299Z" fill="#08061F"/>
<path d="M122.851 13.4614C123.099 15.0869 122.934 16.7513 122.372 18.2907C121.151 21.5067 118.099 23.3379 114.464 23.0826C111.258 22.8542 109.025 20.7697 108.484 17.4976C107.913 14.0469 109.859 11.2502 113.262 10.698C114.582 10.4903 115.911 10.2827 117.27 10.3658C118.083 10.4135 118.139 10.2661 117.777 9.49584C116.829 7.47569 115.11 7.01892 113.168 7.09574C112.378 7.10012 111.593 7.21821 110.835 7.44662C110.743 7.48651 110.643 7.50541 110.544 7.50201C110.444 7.49862 110.346 7.47302 110.256 7.42695C110.167 7.38088 110.088 7.31541 110.025 7.23498C109.962 7.15455 109.916 7.06104 109.891 6.96078C109.597 6.14898 109.29 5.33719 109.029 4.51294C108.885 4.06447 109.029 3.66792 109.498 3.55165C112.965 2.68794 116.38 2.38066 119.378 4.95724C120.981 6.33377 121.709 8.2688 122.326 10.2557C122.592 11.1755 122.694 12.1222 122.851 13.4614ZM115.188 14.5888C114.616 14.6558 114.05 14.7626 113.492 14.9085C112.719 15.1161 112.426 15.5833 112.406 16.3619C112.37 17.8048 113.248 18.7973 114.771 18.9343C116.586 19.0983 118.747 18.1246 118.883 15.6829C118.921 15.0206 118.767 14.5763 118.007 14.5535C117.065 14.5244 116.126 14.4476 115.188 14.5846V14.5888Z" fill="#08061F"/>
<path d="M38.3459 18.1681C38.4523 20.641 38.1714 23.1153 37.5143 25.4951C36.881 27.7 35.9352 29.7285 33.9693 31.0095C30.5625 33.2352 25.9414 32.1556 23.5968 28.6094C22.194 26.5124 21.6229 24.131 21.2762 21.6624C20.8414 18.5709 20.9896 15.4815 21.2862 12.3921C21.3524 11.707 21.7131 11.4225 22.3523 11.5201C23.0778 11.6281 23.8019 11.752 24.5246 11.8918C25.0998 11.9997 25.3382 12.307 25.2741 12.9755C24.9435 16.5051 24.8392 20.0347 25.719 23.5123C26.0757 24.92 26.6067 26.2508 27.771 27.1872C29.5205 28.5928 31.6968 28.2253 32.8651 26.2965C33.835 24.7041 34.0354 22.8853 34.2278 21.0728C34.5083 18.436 34.3861 15.8054 34.0815 13.1832C33.9773 12.2343 34.2037 11.9748 35.1236 11.8357C35.7247 11.7485 36.3139 11.6405 36.9071 11.5388C37.5604 11.4246 37.9391 11.6032 38.0373 12.3797C38.2761 14.2988 38.3793 16.2334 38.3459 18.1681Z" fill="#08061F"/>
<path d="M61.8223 9.7014C60.2091 9.92147 58.7722 10.4218 57.3414 10.9471C56.2613 11.3458 56.2432 11.3416 55.6741 10.3139C55.4256 9.86541 55.1771 9.41695 54.9326 8.96642C54.3776 7.95115 54.4737 7.63972 55.5499 7.20164C57.997 6.20267 60.5621 5.54701 63.1769 5.25208C67.5856 4.74963 71.9322 5.13373 76.2387 6.15522C77.0724 6.36285 77.2407 6.63898 77.0503 7.48815C76.9221 8.06949 76.7758 8.64875 76.6215 9.22386C76.3249 10.3284 76.2026 10.4032 75.1405 10.1582C72.5227 9.56857 69.857 9.23629 67.1788 9.16573C66.4835 9.13874 66.1949 9.42111 65.9764 10.0274C63.9525 15.6664 62.8723 21.4756 62.9064 27.4945C62.9064 28.5181 62.8222 28.6178 61.8563 28.678C61.2291 28.7153 60.5918 28.7486 59.9666 28.7714C59.139 28.8108 58.9466 28.6364 58.9265 27.752C58.8569 23.9689 59.2086 20.1902 59.9746 16.4906C60.4504 14.1891 61.0675 11.9214 61.8223 9.7014Z" fill="#08061F"/>
<path d="M7.03404 33.4221C5.85571 33.4719 5.73547 33.3328 5.63127 32.3196C5.31665 29.2053 5.03008 26.091 5.1924 22.9559C5.37075 19.3205 6.04208 15.8262 8.2284 12.8302C10.2804 10.0273 13.084 8.47018 16.2803 7.61063C17.3223 7.3338 18.3751 7.1158 19.4385 6.95662C20.3443 6.80713 20.5567 7.02098 20.6409 7.95528C20.707 8.63005 20.7531 9.30897 20.8533 9.97958C20.9495 10.6191 20.7551 10.945 20.1139 11.0488C18.2181 11.352 16.3484 11.7547 14.605 12.6496C12.062 13.9597 10.539 16.0857 9.79549 18.8782C9.63718 19.4471 9.85561 19.5551 10.3265 19.5011C11.9698 19.3391 13.623 19.2436 15.2503 18.9405C16.3264 18.7329 16.4907 18.8284 16.7152 19.9059C16.8354 20.4894 16.9155 21.0811 17.0298 21.6666C17.2061 22.5884 17.0959 22.8106 16.2402 22.9642C14.1769 23.3687 12.0836 23.5876 9.98386 23.6182C9.42877 23.6182 9.22035 23.7532 9.1943 24.3885C9.11214 26.9775 9.38067 29.5437 9.61914 32.1099C9.68127 32.7868 9.4468 33.092 8.86565 33.1875C8.21838 33.2892 7.54505 33.3556 7.03404 33.4221Z" fill="#08061F"/>
<path d="M69.4012 29.9943C67.5656 29.2552 67.5495 29.2489 68.269 27.1291C68.9888 25.0291 69.5325 22.8688 69.8942 20.6721C69.9683 20.2174 70.0184 19.7565 70.0525 19.2956C70.1226 18.353 69.7639 17.645 68.9062 17.2733C68.4032 17.0657 68.2509 16.7294 68.3471 16.1812C68.4814 15.4359 68.5475 14.6781 68.6557 13.9244C68.7639 13.1707 69.1086 12.9714 69.824 13.2268C70.6998 13.5403 71.5394 13.941 72.2087 14.6116C72.5274 14.9376 72.7418 14.8795 73.0805 14.6656C75.7658 12.961 78.6154 13.0607 81.5251 13.8538C82.1123 14.0137 82.2506 14.4289 82.0923 14.9853C81.8919 15.7141 81.6594 16.4387 81.433 17.1633C81.2606 17.7197 80.9159 17.9273 80.3388 17.7965C79.1364 17.5246 77.918 17.346 76.6776 17.5889C75.0223 17.9087 74.1846 18.816 73.9702 20.5537C73.6524 22.9221 73.1155 25.2534 72.3671 27.5153C72.1346 28.2357 71.9342 28.9686 71.6817 29.6829C71.331 30.6607 71.1727 30.721 70.2068 30.3306L69.4012 29.9943Z" fill="#08061F"/>
</svg>
