<svg width="166" height="50" viewBox="0 0 166 50" fill="none" xmlns="http://www.w3.org/2000/svg">
<g clip-path="url(#clip0_324_8929)">
<path d="M13.3036 15.7906H13.1373H11.2991V3.49689C11.3023 3.16327 11.3793 2.83432 11.5249 2.53287C11.6705 2.23142 11.8811 1.96468 12.1421 1.75116C14.4276 -0.206168 21.6564 0.665547 23.0824 0.861051C27.1359 1.41306 30.796 3.5751 33.3859 6.94925L30.6719 9.38499C30.9298 9.61441 31.2624 9.74635 31.6102 9.75731C31.9581 9.76826 32.2986 9.6575 32.571 9.44479C27.3139 13.6562 20.8321 15.7906 13.3036 15.7906ZM14.9966 4.38011V12.1289C20.3591 11.8644 25.0659 10.3349 29.0116 7.56566C27.2467 5.90027 24.9991 4.81377 22.579 4.456C18.8416 3.9431 16.144 4.1133 14.9966 4.38011Z" fill="#08061F"/>
<path d="M13.0694 31.9806C12.164 31.9792 11.2594 31.927 10.3601 31.8242L2.69577 30.9456C2.14726 30.8834 1.64122 30.6252 1.27413 30.2201C0.907034 29.815 0.704572 29.2913 0.705333 28.749V12.9478C0.704238 12.6036 0.784958 12.264 0.941067 11.956C1.09718 11.6479 1.32436 11.3799 1.60453 11.1733C1.8847 10.9667 2.21011 10.8272 2.55486 10.7659C2.8996 10.7046 3.25416 10.7232 3.59029 10.8202C6.70193 11.6957 9.92166 12.1454 13.1584 12.1565H13.3036C19.961 12.1565 25.6583 10.2958 30.2457 6.63646C30.6577 6.30001 31.1798 6.12161 31.7154 6.1343C32.251 6.14699 32.7638 6.3499 33.1588 6.70546L33.2548 6.79056L33.3367 6.88716C33.4589 7.02723 33.5628 7.18177 33.6459 7.34717C33.7973 7.65253 33.8773 7.98731 33.88 8.32699C33.8917 9.0561 33.9034 9.99911 33.9105 11.0571C33.9405 14.3133 33.1888 17.5307 31.7163 20.4482C29.2291 25.3561 24.892 29.1185 19.6262 30.9364C17.5154 31.6419 15.2991 31.9949 13.0694 31.9806ZM4.4052 27.4909L10.798 28.2223C13.3655 28.5514 15.9756 28.3045 18.4319 27.5001C22.7895 25.9969 26.3784 22.8836 28.4356 18.8221C29.6409 16.4302 30.2607 13.7949 30.2457 11.1261C25.4429 14.2174 19.7667 15.7814 13.3247 15.7814H13.1584C10.2117 15.7622 7.27623 15.4236 4.4052 14.7717V27.4909Z" fill="#08061F"/>
<path d="M11.3294 41.9168C7.63422 41.9168 4.30434 40.822 1.70507 38.745C2.01539 38.9834 2.40146 39.1066 2.79518 39.0927C3.18889 39.0788 3.56497 38.9288 3.85708 38.6691L1.14307 36.2357C1.79325 35.3703 2.61169 34.6401 3.55104 34.0874C4.49038 33.5347 5.53199 33.1704 6.61559 33.0156C8.2735 32.7856 11.2428 32.5717 12.5166 33.6596C12.7451 33.8499 12.9288 34.0867 13.055 34.3536C13.1811 34.6204 13.2467 34.911 13.2473 35.2053V41.9145H11.409L11.3294 41.9168ZM5.74448 37.0407C6.93473 37.6455 8.22606 38.0351 9.55675 38.1907V36.4749C8.74409 36.4477 7.93059 36.4924 7.12608 36.6083C6.6443 36.6761 6.17738 36.8222 5.74448 37.0407Z" fill="#08061F"/>
<path d="M11.4303 49.4999C10.2768 49.5052 9.13059 49.3201 8.0395 48.9525C5.33204 48.0173 3.10363 46.0802 1.82935 43.5543C1.07165 42.0539 0.684942 40.3991 0.700656 38.7243C0.700656 38.2229 0.700655 37.7789 0.714705 37.4224C0.714715 37.3455 0.720194 37.2686 0.731099 37.1924V36.6749L0.770911 36.6312V36.5254L1.34696 36.0102L1.85043 35.518H2.31876C2.6185 35.4541 2.92908 35.4578 3.22717 35.5287C3.52527 35.5996 3.80314 35.7359 4.0399 35.9274C6.01161 37.5052 8.48911 38.2988 11.4045 38.2919C12.8255 38.285 14.2389 38.0877 15.6055 37.7054C15.9094 37.617 16.2301 37.5994 16.5421 37.6542C16.8541 37.7089 17.1488 37.8344 17.4027 38.0206C17.6567 38.2069 17.8629 38.4487 18.005 38.727C18.1471 39.0053 18.2211 39.3123 18.2212 39.6236V47.0228C18.221 47.513 18.0375 47.986 17.7055 48.352C17.3735 48.7179 16.9161 48.9513 16.4204 49.0077L12.8353 49.4194C12.3689 49.473 11.8998 49.4999 11.4303 49.4999ZM4.59254 40.5298C4.71722 41.0235 4.89624 41.5024 5.12644 41.9581C5.97374 43.6319 7.45233 44.915 9.24782 45.5347C10.2577 45.8642 11.3307 45.9641 12.3857 45.8268L14.5096 45.583V41.6729C13.4818 41.8417 12.4419 41.9294 11.3998 41.9351C9.05608 41.9548 6.73617 41.4721 4.60191 40.5206L4.59254 40.5298ZM1.67948 38.7427H1.69587H1.67948Z" fill="#08061F"/>
<path d="M65.9588 20.6851C65.9588 25.5957 62.5306 28.9653 57.0604 28.9653H52.459V37.2707H48.429V12.3728H57.0721C62.5306 12.3728 65.9588 15.7401 65.9588 20.6851ZM61.8515 20.6851C61.8515 17.4927 59.7815 16.0552 56.674 16.0552H52.459V25.2806H56.674C59.7815 25.2806 61.8515 23.8776 61.8515 20.6851Z" fill="#08061F"/>
<path d="M87.5632 28.1557C87.5632 34.4348 82.9571 37.6272 78.5641 37.6272C75.171 37.6272 72.8153 35.8033 72.1362 34.3635H72.0285V37.2707H68.0991V12.3728H72.0261V21.9479H72.1338C72.8129 20.5103 75.178 18.6864 78.5618 18.6864C82.9571 18.6864 87.5632 21.8766 87.5632 28.1557ZM83.6713 28.1557C83.6713 24.2272 80.7794 22.194 77.8171 22.194C74.8174 22.194 71.9254 24.2272 71.9254 28.1557C71.9254 32.0841 74.8174 34.1197 77.8171 34.1197C80.7794 34.1197 83.6713 32.0841 83.6713 28.1557Z" fill="#08061F"/>
<path d="M88.6357 28.1557C88.6357 21.8765 93.2418 18.6864 97.6348 18.6864C101.026 18.6864 103.384 20.5103 104.06 21.9479H104.161V19.036H108.09V37.2707H104.161V34.3635H104.053C103.377 35.8033 101.009 37.6272 97.6278 37.6272C93.2418 37.6272 88.6357 34.4348 88.6357 28.1557ZM104.276 28.1557C104.276 24.2272 101.384 22.194 98.3842 22.194C95.3845 22.194 92.53 24.2272 92.53 28.1557C92.53 32.0841 95.422 34.1196 98.3842 34.1196C101.346 34.1196 104.276 32.0841 104.276 28.1557Z" fill="#08061F"/>
<path d="M121.958 18.8267V22.5067C121.581 22.4346 121.199 22.3992 120.815 22.4009C117.279 22.4009 114.886 24.931 114.886 28.749V37.2707H110.952V19.0314H114.879V23.7327C115.523 20.9956 117.38 18.6726 120.771 18.6726C121.172 18.6686 121.571 18.7205 121.958 18.8267Z" fill="#08061F"/>
<path d="M129.524 22.1572V32.1555C129.524 33.2066 130.095 34.0139 131.559 34.0139C132.144 34.0067 132.724 33.9001 133.273 33.6988V36.7486C132.594 37.3099 131.381 37.4847 130.381 37.4847C127.559 37.4847 125.559 36.1184 125.559 32.857V22.1572H122.983V19.0361H125.559V14.3716H129.524V19.0361H133.27V22.1572H129.524Z" fill="#08061F"/>
<path d="M152.634 29.6299H138.064C138.673 32.7856 141.209 34.4002 144.387 34.4002C146.386 34.4002 148.171 33.7677 149.538 32.505L151.395 34.4002C149.786 36.3644 147.11 37.6203 143.967 37.6203C138.933 37.6203 134.366 34.2162 134.366 28.1487C134.366 22.0099 138.973 18.6794 143.686 18.6794C148.4 18.6794 153.521 21.9823 152.634 29.6299ZM138.029 26.7526H149.121C148.906 23.5969 146.335 21.9823 143.693 21.9823C141.094 21.9823 138.584 23.5256 138.022 26.7526H138.029Z" fill="#08061F"/>
<path d="M165.698 18.8267V22.5068C165.322 22.4346 164.939 22.3992 164.555 22.401C161.019 22.401 158.626 24.931 158.626 28.7491V37.2707H154.699V19.0314H158.626V23.7327C159.27 20.9957 161.127 18.6726 164.52 18.6726C164.918 18.6694 165.315 18.7213 165.698 18.8267Z" fill="#08061F"/>
</g>
<defs>
<clipPath id="clip0_324_8929">
<rect width="165" height="49" fill="white" transform="translate(0.698242 0.5)"/>
</clipPath>
</defs>
</svg>
