<svg width="130" height="32" viewBox="0 0 130 32" fill="none" xmlns="http://www.w3.org/2000/svg">
<path d="M130 17.2414C129.796 13.5858 128.157 10.2751 125.562 7.93C123.173 5.79182 120.1 4.48132 116.686 4.48132C109.312 4.48132 103.304 10.551 103.304 17.9312C103.304 25.3803 109.312 31.45 116.686 31.45C120.1 31.45 123.241 30.1395 125.562 28.0013C128.089 25.6562 129.796 22.4144 130 18.6899C130 18.414 130 18.2071 130 17.9312C130 17.7242 130 17.4483 130 17.2414ZM116.55 27.0356C111.634 27.0356 107.605 22.9662 107.605 18.0001C107.605 13.034 111.634 8.9646 116.55 8.9646C121.261 8.9646 125.153 12.6892 125.426 17.4483V18.5519C125.221 23.3111 121.329 27.0356 116.55 27.0356Z" fill="#08061F"/>
<path d="M51.0026 6.55054C44.9259 6.55054 40.0099 11.4477 39.9417 17.5863H62.0635C61.9952 11.5166 57.1475 6.55054 51.0026 6.55054ZM51.0026 8.55076C55.304 8.55076 58.9227 11.5856 59.8786 15.655H42.1265C43.1507 11.5856 46.7011 8.55076 51.0026 8.55076Z" fill="#08061F"/>
<path d="M63.9757 17.5867C63.9074 10.4134 58.0356 4.61963 51.003 4.61963C43.9022 4.61963 37.9621 10.4134 37.8938 17.5867V19.5869H63.9757V17.5867ZM42.127 15.6554C43.0829 11.586 46.7016 8.55113 51.003 8.55113C55.3045 8.55113 58.9232 11.586 59.8791 15.6554H42.127Z" fill="#08061F"/>
<path d="M61.8589 22.8978C60.0837 26.8293 55.9188 29.5883 51.0028 29.5883C46.1551 29.5883 41.9219 26.8293 40.1467 22.8978H42.4682C44.1068 25.7257 47.3158 27.657 51.0028 27.657C54.6898 27.657 57.8988 25.7257 59.5375 22.8978H61.8589Z" fill="#08061F"/>
<path d="M59.5375 22.8979C57.8989 25.7259 54.6898 27.6571 51.0029 27.6571C47.3159 27.6571 44.1069 25.7259 42.4682 22.8979H37.9619C39.8737 27.864 44.9945 31.4507 51.0029 31.4507C57.0113 31.4507 62.1321 27.864 64.0438 22.8979H59.5375Z" fill="#08061F"/>
<path d="M12.0851 16.0689L9.28571 15.1722C7.92016 14.7584 6.96427 14.2756 6.41806 13.6548C5.87184 13.034 5.59873 12.3443 5.59873 11.4477C5.59873 10.482 6.0084 9.79227 6.82772 9.17151C7.64705 8.61973 8.6712 8.34384 9.83192 8.34384C12.0168 8.34384 13.792 9.30946 15.1575 11.3097L18.4349 9.03358C16.6596 5.99874 13.8603 4.48132 9.96848 4.48132C7.44222 4.48132 5.3939 5.10208 3.68697 6.41257C1.98004 7.72307 1.16071 9.44741 1.16071 11.5856C1.16071 15.3791 3.27731 17.9311 7.57878 19.1727L10.1733 20.0004C11.812 20.5522 12.9727 21.1039 13.6554 21.7247C14.3382 22.3455 14.6796 23.1042 14.6796 24.0698C14.6796 25.1734 14.2699 26.0011 13.3823 26.6218C12.4947 27.2426 11.4706 27.5874 10.1733 27.5874C8.6712 27.5874 7.37394 27.2426 6.14495 26.4839C4.91596 25.7252 4.09664 24.7595 3.6187 23.449L0 25.4493C0.819327 27.4495 2.04832 28.8979 3.82353 29.9325C5.59874 30.9671 7.64705 31.45 10.0368 31.45C12.6996 31.45 14.8162 30.7602 16.5231 29.3808C18.1617 28.0013 19.0493 26.07 19.0493 23.6559C18.9811 20.0693 16.6596 17.5863 12.0851 16.0689Z" fill="#08061F"/>
<path d="M29.6321 8.75778H34.8211V4.68835H29.6321V0.274048C29.6321 0.274048 29.6321 0.274052 29.6321 0.343026C29.4955 0.687893 28.4714 3.03298 26.2182 4.68835C25.9451 4.89527 25.6037 5.10218 25.2623 5.30911C24.2382 5.86089 23.0092 6.20577 21.5754 6.20577H21.5071V8.89574H25.2623V23.794C25.2623 26.415 26.0134 28.3463 27.4472 29.7257C28.881 31.1052 30.7928 31.726 33.1825 31.726C33.797 31.726 34.3432 31.657 34.9577 31.588V27.5186C34.6846 27.5186 34.3432 27.5186 34.0018 27.5186C32.4997 27.5186 31.4756 27.1737 30.7928 26.553C30.11 25.9322 29.7686 24.7596 29.7686 23.1043V8.75778H29.6321Z" fill="#08061F"/>
<path d="M87.8044 4.61963L78.4504 25.3807L69.1647 4.75758H64.2488L76.5387 31.6573H80.2256L92.6521 4.61963H87.8044Z" fill="#08061F"/>
<path d="M100.299 4.61963H95.8611V31.6573H100.299V4.61963Z" fill="#08061F"/>
<path d="M130 5.65393H125.562V31.657H130V5.65393Z" fill="#08061F"/>
<path d="M34.8213 4.61963H21.439V8.75804H34.8213V4.61963Z" fill="#08061F"/>
<path d="M29.6324 0.274048H25.1943V9.93034H29.6324V0.274048Z" fill="#08061F"/>
</svg>
