<svg width="148" height="62" viewBox="0 0 148 62" fill="none" xmlns="http://www.w3.org/2000/svg">
<path d="M50.376 22.4806H44.4054L49.243 17.5067C49.7484 16.9887 50.1493 16.3731 50.4229 15.6954C50.6965 15.0177 50.8374 14.2912 50.8374 13.5574C50.8374 12.8236 50.6965 12.0971 50.4229 11.4194C50.1493 10.7417 49.7484 10.1261 49.243 9.60804C48.7391 9.08812 48.1403 8.67558 47.4809 8.3941C46.8216 8.11261 46.1147 7.96771 45.4008 7.96771C44.6869 7.96771 43.98 8.11261 43.3207 8.3941C42.6614 8.67558 42.0626 9.08812 41.5586 9.60804L36.713 14.5922V8.43274C36.713 7.69948 36.5723 6.97342 36.2991 6.29612C36.0259 5.61881 35.6254 5.00354 35.1207 4.48553C34.6159 3.96753 34.0168 3.55694 33.3575 3.27728C32.6983 2.99761 31.9918 2.85436 31.2787 2.85572C29.8401 2.85572 28.4604 3.4433 27.4431 4.48919C26.4259 5.53508 25.8544 6.95362 25.8544 8.43274V14.5881L20.9947 9.60597C20.49 9.08697 19.8909 8.67526 19.2315 8.39437C18.5721 8.11348 17.8653 7.96891 17.1515 7.96891C16.4377 7.96891 15.7309 8.11348 15.0715 8.39437C14.4121 8.67526 13.813 9.08697 13.3083 9.60597C12.8029 10.1241 12.402 10.7396 12.1284 11.4173C11.8548 12.095 11.7139 12.8216 11.7139 13.5553C11.7139 14.2891 11.8548 15.0156 12.1284 15.6934C12.402 16.3711 12.8029 16.9866 13.3083 17.5047L18.146 22.4785H12.1833C11.4701 22.4785 10.764 22.6231 10.1052 22.9041C9.44644 23.185 8.84803 23.5967 8.34421 24.1157C7.84039 24.6346 7.44105 25.2507 7.16905 25.9285C6.89705 26.6063 6.75772 27.3326 6.75904 28.0659C6.75904 29.545 7.33052 30.9635 8.34777 32.0094C9.36501 33.0553 10.7447 33.6429 12.1833 33.6429H18.3247C16.5092 36.6437 15.7425 40.1911 16.151 43.7001C16.9727 50.88 22.636 56.6574 29.6293 57.4175C32.4641 57.7412 35.3303 57.2385 37.9005 55.9671C40.4707 54.6956 42.6413 52.7065 44.1642 50.227C45.6873 47.7475 46.5013 44.8776 46.5134 41.945C46.5255 39.0125 45.7351 36.1356 44.2326 33.6429H50.376C51.0892 33.6443 51.7956 33.501 52.4549 33.2213C53.1142 32.9417 53.7133 32.5311 54.2181 32.0131C54.7228 31.4951 55.1233 30.8798 55.3965 30.2025C55.6697 29.5252 55.8103 28.7991 55.8103 28.0659C55.8114 27.3319 55.6715 26.605 55.3988 25.9267C55.1261 25.2485 54.7258 24.6322 54.2209 24.1133C53.7161 23.5945 53.1166 23.1831 52.4568 22.903C51.797 22.6228 51.0899 22.4793 50.376 22.4806ZM32.2791 46.2346C31.3541 46.458 30.3834 46.3652 29.5141 45.9704C28.6449 45.5756 27.9246 44.9002 27.4623 44.0466C27 43.1929 26.821 42.2077 26.9523 41.24C27.0837 40.2724 27.5183 39.3751 28.1902 38.6843C28.8621 37.9934 29.7348 37.5466 30.6759 37.4115C31.6171 37.2765 32.5754 37.4606 33.4056 37.9359C34.2359 38.4112 34.8928 39.1518 35.2768 40.0455C35.6608 40.9392 35.751 41.9372 35.5337 42.8884C35.3462 43.701 34.9425 44.4441 34.3678 45.0343C33.793 45.6245 33.0698 46.0387 32.2791 46.2304V46.2346Z" fill="#08061F"/>
<path d="M69.5336 20.6815V23.9967H76.0729V27.3801H69.5336V32.9055H65.7507V17.2548H77.1236V20.6815H69.5336Z" fill="#08061F"/>
<path d="M88.386 28.2105H80.5268C80.7739 29.361 81.5133 30.2595 82.9899 30.2595C83.7934 30.2595 84.2656 30.0757 84.597 29.6605H88.2695C87.6206 31.8479 85.6055 33.2071 83.0461 33.2071C79.4862 33.2071 77.1116 30.7284 77.1116 27.314C77.1116 23.8997 79.4179 21.4437 82.7769 21.4437C86.6161 21.4437 88.9224 24.2529 88.386 28.2105ZM80.573 26.0706H85.0953C84.8944 24.7817 84.1089 24.2116 82.8854 24.2116C81.6016 24.2054 80.8623 24.9428 80.573 26.0706Z" fill="#08061F"/>
<path d="M107.642 26.4383V32.9077H104.026V26.8989C104.026 25.3807 103.264 24.8334 102.234 24.8334C101.892 24.826 101.553 24.8988 101.243 25.0463C100.933 25.1938 100.66 25.412 100.444 25.6844C100.463 25.8993 100.47 26.1151 100.466 26.3309V32.9138H96.8497V26.7833C96.8497 25.2651 96.0883 24.8272 95.1702 24.8272C94.8068 24.8224 94.4474 24.9054 94.1208 25.0693C93.7943 25.2332 93.5096 25.4736 93.2898 25.7711V32.9077H89.6194V21.7433H93.2697V22.4332C94.0545 21.7645 95.0494 21.4127 96.0682 21.4438C97.4544 21.4438 98.5975 21.9044 99.381 22.8257C100.368 21.9104 101.657 21.4163 102.985 21.4438C105.806 21.4438 107.642 23.216 107.642 26.4383Z" fill="#08061F"/>
<path d="M120.606 21.7432V32.9076H116.98V32.3085C116.101 32.9104 115.066 33.2238 114.011 33.2071C111.077 33.2071 108.614 30.6272 108.614 27.314C108.614 24.0009 111.077 21.4437 114.011 21.4437C115.066 21.4174 116.105 21.7222 116.988 22.3174V21.7432H120.606ZM116.98 29.0388V25.5872C116.702 25.2619 116.357 25.0048 115.969 24.835C115.582 24.6652 115.162 24.5869 114.742 24.6061C113.263 24.6061 112.166 25.7793 112.166 27.3223C112.166 28.8653 113.263 30.0385 114.742 30.0385C115.164 30.0554 115.584 29.9742 115.972 29.8012C116.359 29.6281 116.704 29.3675 116.98 29.0388Z" fill="#08061F"/>
<path d="M125.556 16.5649V32.9077H121.908V16.5649H125.556Z" fill="#08061F"/>
<path d="M138.426 28.2105H130.567C130.814 29.361 131.551 30.2595 133.03 30.2595C133.833 30.2595 134.305 30.0757 134.637 29.6605H138.319C137.67 31.8479 135.655 33.2071 133.096 33.2071C129.536 33.2071 127.163 30.7284 127.163 27.314C127.163 23.8997 129.47 21.4437 132.829 21.4437C136.656 21.4437 138.962 24.2529 138.426 28.2105ZM130.611 26.0706H135.133C134.932 24.7817 134.149 24.2116 132.923 24.2116C131.641 24.2054 130.902 24.9428 130.611 26.0706Z" fill="#08061F"/>
<path d="M75.3115 51.4584L72.4246 46.9307H69.5336V51.4584H65.7507V35.8138H72.4005C76.1834 35.8138 78.7147 37.931 78.7147 41.3144C78.7355 42.2597 78.5071 43.1932 78.0536 44.0158C77.6002 44.8384 76.9386 45.5194 76.1392 45.9867L79.7212 51.4584H75.3115ZM69.5336 43.4254H72.3322C73.7887 43.4254 74.9298 42.5992 74.9298 41.3082C74.9298 40.0173 73.7887 39.2427 72.3322 39.2427H69.5336V43.4254Z" fill="#08061F"/>
<path d="M80.5088 37.6192C80.4943 37.2487 80.588 36.8822 80.7777 36.5669C80.9674 36.2515 81.2445 36.0017 81.5733 35.8496C81.9022 35.6974 82.2678 35.6498 82.6232 35.7129C82.9785 35.776 83.3074 35.947 83.5676 36.2037C83.8277 36.4605 84.0072 36.7914 84.0831 37.1539C84.1589 37.5164 84.1276 37.8939 83.9931 38.2379C83.8586 38.582 83.6272 38.8768 83.3285 39.0846C83.0298 39.2923 82.6775 39.4035 82.3169 39.4038C82.0835 39.4115 81.8509 39.3712 81.6329 39.2852C81.4149 39.1991 81.2158 39.0692 81.0473 38.9029C80.8789 38.7366 80.7445 38.5374 80.652 38.3169C80.5595 38.0965 80.5108 37.8592 80.5088 37.6192Z" fill="#08061F"/>
<path d="M84.135 40.3022H80.5088V51.4666H84.135V40.3022Z" fill="#08061F"/>
<path d="M90.4069 49.0252C91.3692 49.0252 91.9739 48.7505 91.9739 48.2651C91.9739 47.8747 91.548 47.5979 90.8328 47.4822L88.639 47.0918C86.7807 46.7696 85.4588 45.6872 85.4588 43.7312C85.4588 41.3826 87.4075 40.0028 90.2944 40.0028C92.8699 40.0028 95.1983 40.8993 95.355 43.8468H92.1527C92.0864 43.0206 91.3029 42.6488 90.2944 42.6488C89.3542 42.6488 88.9303 42.9958 88.9303 43.4089C88.9303 43.822 89.1975 44.1463 90.0714 44.3074L92.0804 44.6524C94.0894 45.0428 95.4615 46.057 95.4615 48.0358C95.4615 50.6136 93.2215 51.7641 90.3788 51.7641C87.5803 51.7641 85.274 50.5909 85.0269 47.6206L88.2412 47.6454C88.414 48.6121 89.2658 49.0252 90.4069 49.0252Z" fill="#08061F"/>
<path d="M107.262 46.7696H99.4032C99.6504 47.9201 100.388 48.8186 101.866 48.8186C102.67 48.8186 103.142 48.6348 103.473 48.2196H107.146C106.497 50.407 104.482 51.7641 101.923 51.7641C98.3626 51.7641 95.99 49.2854 95.99 45.8711C95.99 42.4567 98.2963 40.0028 101.655 40.0028C105.492 40.0028 107.799 42.8099 107.262 46.7696ZM99.4475 44.6297H103.966C103.765 43.3408 102.981 42.7707 101.756 42.7707C100.478 42.7645 99.7468 43.5019 99.4475 44.6297Z" fill="#08061F"/>
<path d="M110.121 40.6886H109.233V42.9173H108.544V40.6886H107.654V40.0524H110.121V40.6886Z" fill="#08061F"/>
<path d="M113.442 42.9173H112.749V41.4714L112.13 42.4546H111.744L111.122 41.4631V42.909H110.434V40.0524H110.951L111.937 41.5809L112.926 40.0524H113.442V42.9173Z" fill="#08061F"/>
</svg>
