<svg xmlns="http://www.w3.org/2000/svg" width="24" height="24" viewBox="0 0 24 24" fill="none">
  <path fill-rule="evenodd" clip-rule="evenodd" d="M16.5834 11.0058L12.2933 6.71885C11.8933 6.31915 11.8933 5.68961 12.2923 5.2999C12.6823 4.9002 13.3123 4.9002 13.7123 5.2989L19.7123 11.2945C19.9632 11.5388 20.0527 11.8907 19.9807 12.2144C19.9293 12.453 19.7919 12.6607 19.6029 12.8032L13.7025 18.6992C13.5125 18.8791 13.2525 18.989 12.9925 18.989L13.0025 19C12.7325 19 12.4725 18.8901 12.2925 18.7102C11.8925 18.3205 11.8925 17.681 12.2825 17.2913V17.2813L16.5626 13.0043H5.00293C4.44293 13.0043 4.00293 12.5547 4.00293 12.0051C4.00293 11.4455 4.44293 11.0058 5.00293 11.0058H16.5834Z" fill="white"/>
</svg>