<svg xmlns="http://www.w3.org/2000/svg" width="18" height="13" viewBox="0 0 18 13" fill="none">
  <path fill-rule="evenodd" clip-rule="evenodd" d="M0 1.56C0 2.07914 0.420857 2.5 0.94 2.5H17.06C17.5791 2.5 18 2.07914 18 1.56V1.44C18 0.920857 17.5791 0.5 17.06 0.5H0.94C0.420857 0.5 0 0.920857 0 1.44V1.56ZM4 6.56C4 7.07914 4.42086 7.5 4.94 7.5H17.06C17.5791 7.5 18 7.07914 18 6.56V6.44C18 5.92086 17.5791 5.5 17.06 5.5H4.94C4.42086 5.5 4 5.92086 4 6.44V6.56ZM1.70711 7.20711C2.09763 6.81659 2.09763 6.18342 1.70711 5.7929C1.31659 5.40238 0.683424 5.40238 0.2929 5.7929C-0.097624 6.18342 -0.097624 6.81659 0.2929 7.20711C0.68342 7.59763 1.31659 7.59763 1.70711 7.20711ZM0.94 12.5C0.420857 12.5 0 12.0791 0 11.56V11.44C0 10.9209 0.420857 10.5 0.94 10.5H17.06C17.5791 10.5 18 10.9209 18 11.44V11.56C18 12.0791 17.5791 12.5 17.06 12.5H0.94Z" fill="#ffffff"/>
</svg>