<svg xmlns="http://www.w3.org/2000/svg" width="32" height="33" viewBox="0 0 32 33" fill="none">
  <path d="M16 0.398438C12.8355 0.398438 9.74207 1.33682 7.11088 3.09492C4.4797 4.85302 2.42894 7.35188 1.21793 10.2755C0.00693255 13.1991 -0.309921 16.4162 0.307443 19.5199C0.924806 22.6236 2.44866 25.4745 4.6863 27.7121C6.92394 29.9498 9.77486 31.4736 12.8786 32.091C15.9823 32.7084 19.1993 32.3915 22.1229 31.1805C25.0466 29.9695 27.5454 27.9187 29.3035 25.2876C31.0616 22.6564 32 19.5629 32 16.3984C31.9919 12.1575 30.3035 8.09253 27.3047 5.09371C24.3059 2.09489 20.241 0.40657 16 0.398438ZM21.8 20.4446C22.0311 20.6779 22.1608 20.9931 22.1608 21.3215C22.1608 21.6499 22.0311 21.9651 21.8 22.1984C21.5648 22.4259 21.2503 22.5531 20.9231 22.5531C20.5958 22.5531 20.2814 22.4259 20.0462 22.1984L16 18.1369L11.9538 22.1984C11.7186 22.4259 11.4042 22.5531 11.0769 22.5531C10.7497 22.5531 10.4353 22.4259 10.2 22.1984C9.96889 21.9651 9.83923 21.6499 9.83923 21.3215C9.83923 20.9931 9.96889 20.6779 10.2 20.4446L14.2615 16.3984L10.2 12.3523C10.0037 12.1131 9.90344 11.8096 9.91862 11.5006C9.9338 11.1916 10.0634 10.8993 10.2821 10.6805C10.5009 10.4618 10.7932 10.3322 11.1021 10.3171C11.4111 10.3019 11.7147 10.4022 11.9538 10.5984L16 14.66L20.0462 10.5984C20.2853 10.4022 20.5889 10.3019 20.8979 10.3171C21.2069 10.3322 21.4991 10.4618 21.7179 10.6805C21.9366 10.8993 22.0662 11.1916 22.0814 11.5006C22.0966 11.8096 21.9963 12.1131 21.8 12.3523L17.7385 16.3984L21.8 20.4446Z" fill="#202329"/>
</svg>