<svg width="95" height="95" viewBox="0 0 95 95" fill="none" xmlns="http://www.w3.org/2000/svg">
<rect width="95" height="95" rx="47.5" fill="#CC0062"/>
<g clip-path="url(#clip0_324_9014)">
<path d="M55 33.9998H53V27.4098L41.41 38.9998L40 37.5898L51.59 25.9998H45V23.9998H55V33.9998Z" fill="white"/>
</g>
<path d="M17.279 62V48.9091H25.4864V50.6094H19.2542V54.598H25.0582V56.2919H19.2542V60.2997H25.5631V62H17.279ZM29.4798 52.1818L31.6468 56.0043L33.8328 52.1818H35.923L32.8612 57.0909L35.9486 62H33.8584L31.6468 58.331L29.4415 62H27.3449L30.4003 57.0909L27.3833 52.1818H29.4798ZM37.8854 65.6818V52.1818H39.7519V53.7734H39.9117C40.0225 53.5689 40.1823 53.3324 40.3911 53.0639C40.5999 52.7955 40.8896 52.5611 41.2604 52.3608C41.6311 52.1562 42.1212 52.054 42.7306 52.054C43.5232 52.054 44.2306 52.2543 44.8527 52.6548C45.4749 53.0554 45.9628 53.6328 46.3165 54.3871C46.6745 55.1413 46.8534 56.049 46.8534 57.1101C46.8534 58.1712 46.6766 59.081 46.3229 59.8395C45.9692 60.5937 45.4834 61.1754 44.8655 61.5845C44.2476 61.9893 43.5423 62.1918 42.7497 62.1918C42.1531 62.1918 41.6652 62.0916 41.286 61.8913C40.911 61.6911 40.6169 61.4567 40.4039 61.1882C40.1908 60.9197 40.0267 60.6811 39.9117 60.4723H39.7966V65.6818H37.8854ZM39.7583 57.0909C39.7583 57.7812 39.8584 58.3864 40.0587 58.9062C40.259 59.4261 40.5487 59.8331 40.928 60.1271C41.3073 60.4169 41.7718 60.5618 42.3215 60.5618C42.8925 60.5618 43.3698 60.4105 43.7533 60.108C44.1368 59.8011 44.4266 59.3857 44.6226 58.8615C44.8229 58.3374 44.923 57.7472 44.923 57.0909C44.923 56.4432 44.825 55.8615 44.629 55.3459C44.4372 54.8303 44.1475 54.4233 43.7597 54.125C43.3762 53.8267 42.8968 53.6776 42.3215 53.6776C41.7675 53.6776 41.2987 53.8203 40.9152 54.1058C40.536 54.3913 40.2483 54.7898 40.0523 55.3011C39.8563 55.8125 39.7583 56.4091 39.7583 57.0909ZM50.906 48.9091V62H48.9948V48.9091H50.906ZM57.6128 62.1982C56.6924 62.1982 55.8891 61.9872 55.203 61.5653C54.517 61.1435 53.9843 60.5533 53.605 59.7947C53.2258 59.0362 53.0361 58.1499 53.0361 57.1357C53.0361 56.1172 53.2258 55.2266 53.605 54.4638C53.9843 53.701 54.517 53.1087 55.203 52.6868C55.8891 52.2649 56.6924 52.054 57.6128 52.054C58.5333 52.054 59.3366 52.2649 60.0226 52.6868C60.7087 53.1087 61.2414 53.701 61.6207 54.4638C61.9999 55.2266 62.1895 56.1172 62.1895 57.1357C62.1895 58.1499 61.9999 59.0362 61.6207 59.7947C61.2414 60.5533 60.7087 61.1435 60.0226 61.5653C59.3366 61.9872 58.5333 62.1982 57.6128 62.1982ZM57.6192 60.5938C58.2158 60.5938 58.7101 60.4361 59.1022 60.1207C59.4942 59.8054 59.784 59.3857 59.9715 58.8615C60.1633 58.3374 60.2591 57.7599 60.2591 57.1293C60.2591 56.5028 60.1633 55.9276 59.9715 55.4034C59.784 54.875 59.4942 54.451 59.1022 54.1314C58.7101 53.8118 58.2158 53.652 57.6192 53.652C57.0184 53.652 56.5198 53.8118 56.1235 54.1314C55.7314 54.451 55.4395 54.875 55.2478 55.4034C55.0603 55.9276 54.9665 56.5028 54.9665 57.1293C54.9665 57.7599 55.0603 58.3374 55.2478 58.8615C55.4395 59.3857 55.7314 59.8054 56.1235 60.1207C56.5198 60.4361 57.0184 60.5938 57.6192 60.5938ZM64.3229 62V52.1818H66.1702V53.7415H66.2725C66.4514 53.2131 66.7668 52.7976 67.2185 52.495C67.6744 52.1882 68.1901 52.0348 68.7654 52.0348C68.8847 52.0348 69.0253 52.0391 69.1872 52.0476C69.3534 52.0561 69.4834 52.0668 69.5771 52.0795V53.9077C69.5004 53.8864 69.3641 53.8629 69.1681 53.8374C68.972 53.8075 68.776 53.7926 68.58 53.7926C68.1283 53.7926 67.7256 53.8885 67.3719 54.0803C67.0225 54.2678 66.7455 54.5298 66.5409 54.8665C66.3364 55.1989 66.2341 55.5781 66.2341 56.0043V62H64.3229ZM75.1111 62.1982C74.1437 62.1982 73.3106 61.9915 72.6118 61.5781C71.9172 61.1605 71.3802 60.5746 71.001 59.8203C70.626 59.0618 70.4385 58.1733 70.4385 57.1548C70.4385 56.1491 70.626 55.2628 71.001 54.4957C71.3802 53.7287 71.9086 53.13 72.5862 52.6996C73.268 52.2692 74.0649 52.054 74.9768 52.054C75.5308 52.054 76.0677 52.1456 76.5876 52.3288C77.1075 52.5121 77.5741 52.7997 77.9875 53.1918C78.4008 53.5838 78.7268 54.093 78.9655 54.7195C79.2041 55.3416 79.3234 56.098 79.3234 56.9886V57.6662H71.5187V56.2344H77.4506C77.4506 55.7315 77.3483 55.2862 77.1437 54.8984C76.9392 54.5064 76.6515 54.1974 76.2808 53.9716C75.9143 53.7457 75.4839 53.6328 74.9896 53.6328C74.4527 53.6328 73.9839 53.7649 73.5834 54.0291C73.1871 54.2891 72.8802 54.63 72.6629 55.0518C72.4498 55.4695 72.3433 55.9233 72.3433 56.4134V57.532C72.3433 58.1882 72.4584 58.7464 72.6885 59.2067C72.9229 59.6669 73.2488 60.0185 73.6665 60.2614C74.0841 60.5 74.572 60.6193 75.1302 60.6193C75.4925 60.6193 75.8227 60.5682 76.121 60.4659C76.4193 60.3594 76.6771 60.2017 76.8944 59.9929C77.1118 59.7841 77.278 59.5263 77.393 59.2195L79.202 59.5455C79.0571 60.0781 78.7971 60.5447 78.4221 60.9453C78.0514 61.3416 77.5848 61.6506 77.0223 61.8722C76.464 62.0895 75.827 62.1982 75.1111 62.1982Z" fill="white"/>
<defs>
<clipPath id="clip0_324_9014">
<rect width="24" height="24" fill="white" transform="matrix(1 0 0 -1 36 43)"/>
</clipPath>
</defs>
</svg>
