<svg xmlns="http://www.w3.org/2000/svg" width="34" height="15" viewBox="0 0 34 15" fill="none">
  <path d="M1 6.49995C0.447715 6.49995 0 6.94767 0 7.49995C0 8.05223 0.447715 8.49995 1 8.49995V6.49995ZM33.7071 8.20706C34.0976 7.81653 34.0976 7.18337 33.7071 6.79284L27.3431 0.428879C26.9526 0.0383553 26.3195 0.0383553 25.9289 0.428879C25.5384 0.819407 25.5384 1.45257 25.9289 1.8431L31.5858 7.49995L25.9289 13.1568C25.5384 13.5473 25.5384 14.1804 25.9289 14.571C26.3195 14.9615 26.9526 14.9615 27.3431 14.571L33.7071 8.20706ZM1 8.49995H33V6.49995H1V8.49995Z" fill="#CC0062"/>
</svg>