<svg width="128" height="24" viewBox="0 0 128 24" fill="none" xmlns="http://www.w3.org/2000/svg">
<path fill-rule="evenodd" clip-rule="evenodd" d="M21.4315 9.72949C21.0445 8.08349 19.3265 7.99849 17.9455 7.92949C17.0765 7.88549 16.1775 7.84149 15.8015 7.45249C15.4185 7.05649 15.1195 6.29749 14.8285 5.56349C14.2615 4.12749 13.6185 2.50049 11.9995 2.50049C10.3815 2.50049 9.73953 4.12749 9.17153 5.56349C8.88153 6.29749 8.58153 7.05649 8.19953 7.45249C7.82253 7.84149 6.92353 7.88549 6.05453 7.92949C4.67353 7.99849 2.95553 8.08349 2.56853 9.72949C2.20153 11.2915 3.34853 12.2365 4.36053 13.0705C5.05253 13.6405 5.70653 14.1805 5.85153 14.8405C5.99253 15.4815 5.78053 16.3095 5.57553 17.1115C5.22353 18.4905 4.82353 20.0525 6.15853 21.0595C6.57553 21.3745 6.99853 21.4995 7.41653 21.4995C8.32153 21.4995 9.20353 20.9155 9.95853 20.4155C10.6575 19.9535 11.3805 19.4745 11.9995 19.4745C12.6185 19.4745 13.3425 19.9535 14.0405 20.4155C15.1455 21.1465 16.5195 22.0545 17.8425 21.0595C19.1775 20.0525 18.7775 18.4895 18.4245 17.1095C18.2195 16.3085 18.0085 15.4805 18.1485 14.8405C18.2935 14.1805 18.9475 13.6415 19.6395 13.0705C20.6515 12.2365 21.7985 11.2915 21.4315 9.72949Z" fill="#F5C15C"/>
<path fill-rule="evenodd" clip-rule="evenodd" d="M47.4315 9.72949C47.0445 8.08349 45.3265 7.99849 43.9455 7.92949C43.0765 7.88549 42.1775 7.84149 41.8015 7.45249C41.4185 7.05649 41.1195 6.29749 40.8285 5.56349C40.2615 4.12749 39.6185 2.50049 37.9995 2.50049C36.3815 2.50049 35.7395 4.12749 35.1715 5.56349C34.8815 6.29749 34.5815 7.05649 34.1995 7.45249C33.8225 7.84149 32.9235 7.88549 32.0545 7.92949C30.6735 7.99849 28.9555 8.08349 28.5685 9.72949C28.2015 11.2915 29.3485 12.2365 30.3605 13.0705C31.0525 13.6405 31.7065 14.1805 31.8515 14.8405C31.9925 15.4815 31.7805 16.3095 31.5755 17.1115C31.2235 18.4905 30.8235 20.0525 32.1585 21.0595C32.5755 21.3745 32.9985 21.4995 33.4165 21.4995C34.3215 21.4995 35.2035 20.9155 35.9585 20.4155C36.6575 19.9535 37.3805 19.4745 37.9995 19.4745C38.6185 19.4745 39.3425 19.9535 40.0405 20.4155C41.1455 21.1465 42.5195 22.0545 43.8425 21.0595C45.1775 20.0525 44.7775 18.4895 44.4245 17.1095C44.2195 16.3085 44.0085 15.4805 44.1485 14.8405C44.2935 14.1805 44.9475 13.6415 45.6395 13.0705C46.6515 12.2365 47.7985 11.2915 47.4315 9.72949Z" fill="#F5C15C"/>
<path fill-rule="evenodd" clip-rule="evenodd" d="M73.4315 9.72949C73.0445 8.08349 71.3265 7.99849 69.9455 7.92949C69.0765 7.88549 68.1775 7.84149 67.8015 7.45249C67.4185 7.05649 67.1195 6.29749 66.8285 5.56349C66.2615 4.12749 65.6185 2.50049 63.9995 2.50049C62.3815 2.50049 61.7395 4.12749 61.1715 5.56349C60.8815 6.29749 60.5815 7.05649 60.1995 7.45249C59.8225 7.84149 58.9235 7.88549 58.0545 7.92949C56.6735 7.99849 54.9555 8.08349 54.5685 9.72949C54.2015 11.2915 55.3485 12.2365 56.3605 13.0705C57.0525 13.6405 57.7065 14.1805 57.8515 14.8405C57.9925 15.4815 57.7805 16.3095 57.5755 17.1115C57.2235 18.4905 56.8235 20.0525 58.1585 21.0595C58.5755 21.3745 58.9985 21.4995 59.4165 21.4995C60.3215 21.4995 61.2035 20.9155 61.9585 20.4155C62.6575 19.9535 63.3805 19.4745 63.9995 19.4745C64.6185 19.4745 65.3425 19.9535 66.0405 20.4155C67.1455 21.1465 68.5195 22.0545 69.8425 21.0595C71.1775 20.0525 70.7775 18.4895 70.4245 17.1095C70.2195 16.3085 70.0085 15.4805 70.1485 14.8405C70.2935 14.1805 70.9475 13.6415 71.6395 13.0705C72.6515 12.2365 73.7985 11.2915 73.4315 9.72949Z" fill="#F5C15C"/>
<path fill-rule="evenodd" clip-rule="evenodd" d="M99.4315 9.72949C99.0445 8.08349 97.3265 7.99849 95.9455 7.92949C95.0765 7.88549 94.1775 7.84149 93.8015 7.45249C93.4185 7.05649 93.1195 6.29749 92.8285 5.56349C92.2615 4.12749 91.6185 2.50049 89.9995 2.50049C88.3815 2.50049 87.7395 4.12749 87.1715 5.56349C86.8815 6.29749 86.5815 7.05649 86.1995 7.45249C85.8225 7.84149 84.9235 7.88549 84.0545 7.92949C82.6735 7.99849 80.9555 8.08349 80.5685 9.72949C80.2015 11.2915 81.3485 12.2365 82.3605 13.0705C83.0525 13.6405 83.7065 14.1805 83.8515 14.8405C83.9925 15.4815 83.7805 16.3095 83.5755 17.1115C83.2235 18.4905 82.8235 20.0525 84.1585 21.0595C84.5755 21.3745 84.9985 21.4995 85.4165 21.4995C86.3215 21.4995 87.2035 20.9155 87.9585 20.4155C88.6575 19.9535 89.3805 19.4745 89.9995 19.4745C90.6185 19.4745 91.3425 19.9535 92.0405 20.4155C93.1455 21.1465 94.5195 22.0545 95.8425 21.0595C97.1775 20.0525 96.7775 18.4895 96.4245 17.1095C96.2195 16.3085 96.0085 15.4805 96.1485 14.8405C96.2935 14.1805 96.9475 13.6415 97.6395 13.0705C98.6515 12.2365 99.7985 11.2915 99.4315 9.72949Z" fill="#F5C15C"/>
<path fill-rule="evenodd" clip-rule="evenodd" d="M125.432 9.72949C125.045 8.08349 123.327 7.99849 121.946 7.92949C121.077 7.88549 120.178 7.84149 119.802 7.45249C119.419 7.05649 119.12 6.29749 118.829 5.56349C118.262 4.12749 117.619 2.50049 116 2.50049C114.382 2.50049 113.74 4.12749 113.172 5.56349C112.882 6.29749 112.582 7.05649 112.2 7.45249C111.823 7.84149 110.924 7.88549 110.055 7.92949C108.674 7.99849 106.956 8.08349 106.569 9.72949C106.202 11.2915 107.349 12.2365 108.361 13.0705C109.053 13.6405 109.707 14.1805 109.852 14.8405C109.993 15.4815 109.781 16.3095 109.576 17.1115C109.224 18.4905 108.824 20.0525 110.159 21.0595C110.576 21.3745 110.999 21.4995 111.417 21.4995C112.322 21.4995 113.204 20.9155 113.959 20.4155C114.658 19.9535 115.381 19.4745 116 19.4745C116.619 19.4745 117.343 19.9535 118.041 20.4155C119.146 21.1465 120.52 22.0545 121.843 21.0595C123.178 20.0525 122.778 18.4895 122.425 17.1095C122.22 16.3085 122.009 15.4805 122.149 14.8405C122.294 14.1805 122.948 13.6415 123.64 13.0705C124.652 12.2365 125.799 11.2915 125.432 9.72949Z" fill="#F5C15C"/>
</svg>
