<svg xmlns="http://www.w3.org/2000/svg" width="40" height="40" viewBox="0 0 40 40" fill="none">
  <path d="M15 10C15 10.6566 15.1293 11.3068 15.3806 11.9134C15.6319 12.52 16.0002 13.0712 16.4645 13.5355C16.9288 13.9998 17.48 14.3681 18.0866 14.6194C18.6932 14.8707 19.3434 15 20 15C20.6566 15 21.3068 14.8707 21.9134 14.6194C22.52 14.3681 23.0712 13.9998 23.5355 13.5355C23.9998 13.0712 24.3681 12.52 24.6194 11.9134C24.8707 11.3068 25 10.6566 25 10C25 9.34339 24.8707 8.69321 24.6194 8.08658C24.3681 7.47995 23.9998 6.92876 23.5355 6.46446C23.0712 6.00017 22.52 5.63187 21.9134 5.3806C21.3068 5.12933 20.6566 5 20 5C19.3434 5 18.6932 5.12933 18.0866 5.3806C17.48 5.63188 16.9288 6.00017 16.4645 6.46447C16.0002 6.92876 15.6319 7.47996 15.3806 8.08659C15.1293 8.69321 15 9.34339 15 10L15 10Z" stroke="#08061F" stroke-width="2"/>
  <path d="M7.39674 23.1691C6.8281 23.4974 6.32969 23.9345 5.92997 24.4554C5.53026 24.9763 5.23705 25.5709 5.06711 26.2051C4.89717 26.8394 4.85381 27.5009 4.93952 28.1519C5.02522 28.8028 5.23831 29.4306 5.56661 29.9992C5.89492 30.5679 6.33201 31.0663 6.85293 31.466C7.37386 31.8657 7.96841 32.1589 8.60265 32.3288C9.23688 32.4988 9.89838 32.5421 10.5494 32.4564C11.2004 32.3707 11.8281 32.1576 12.3967 31.8293C12.9654 31.501 13.4638 31.0639 13.8635 30.543C14.2632 30.0221 14.5564 29.4275 14.7264 28.7933C14.8963 28.1591 14.9397 27.4976 14.854 26.8466C14.7683 26.1956 14.5552 25.5679 14.2269 24.9992C13.8986 24.4306 13.4615 23.9322 12.9405 23.5325C12.4196 23.1327 11.8251 22.8395 11.1908 22.6696C10.5566 22.4996 9.8951 22.4563 9.24411 22.542C8.59311 22.6277 7.96538 22.8408 7.39674 23.1691L7.39674 23.1691Z" stroke="#08061F" stroke-width="2"/>
  <path d="M32.6033 23.1691C33.1719 23.4974 33.6703 23.9345 34.07 24.4554C34.4697 24.9763 34.7629 25.5709 34.9329 26.2051C35.1028 26.8394 35.1462 27.5009 35.0605 28.1519C34.9748 28.8028 34.7617 29.4306 34.4334 29.9992C34.1051 30.5679 33.668 31.0663 33.1471 31.466C32.6261 31.8657 32.0316 32.1589 31.3974 32.3288C30.7631 32.4988 30.1016 32.5421 29.4506 32.4564C28.7996 32.3707 28.1719 32.1576 27.6033 31.8293C27.0346 31.501 26.5362 31.0639 26.1365 30.543C25.7368 30.0221 25.4436 29.4275 25.2736 28.7933C25.1037 28.1591 25.0603 27.4976 25.146 26.8466C25.2317 26.1956 25.4448 25.5679 25.7731 24.9992C26.1014 24.4306 26.5385 23.9322 27.0595 23.5325C27.5804 23.1327 28.1749 22.8395 28.8092 22.6696C29.4434 22.4996 30.1049 22.4563 30.7559 22.542C31.4069 22.6277 32.0346 22.8408 32.6033 23.1691L32.6033 23.1691Z" stroke="#08061F" stroke-width="2"/>
  <path fill-rule="evenodd" clip-rule="evenodd" d="M15.0144 10.3865C15.0045 10.2584 14.9995 10.1298 14.9995 10.0009C14.9995 9.34908 15.127 8.70359 15.3746 8.10075C15.085 8.19949 14.7983 8.3076 14.5149 8.42499C12.7759 9.14531 11.1958 10.2011 9.86482 11.5321C8.53384 12.863 7.47806 14.4431 6.75774 16.1821C6.03743 17.9211 5.66669 19.785 5.66669 21.6673C5.66669 22.6019 5.75809 23.5319 5.93831 24.4444C6.33646 23.9288 6.83158 23.4959 7.39585 23.1701C7.50765 23.1055 7.62172 23.0454 7.73781 22.9899C7.69052 22.5515 7.66669 22.11 7.66669 21.6673C7.66669 20.0476 7.9857 18.4439 8.6055 16.9475C9.22531 15.4512 10.1338 14.0915 11.279 12.9463C12.3561 11.8692 13.6227 11.0016 15.0144 10.3865ZM24.9846 10.3861C26.3767 11.0012 27.6437 11.869 28.721 12.9463C29.8663 14.0915 30.7747 15.4511 31.3945 16.9475C32.0143 18.4438 32.3334 20.0476 32.3334 21.6673C32.3334 22.1101 32.3095 22.5518 32.2622 22.9904C32.3779 23.0458 32.4917 23.1057 32.6031 23.1701C33.1678 23.4961 33.6632 23.9294 34.0615 24.4455C34.2419 23.5327 34.3334 22.6022 34.3334 21.6673C34.3334 19.785 33.9626 17.9211 33.2423 16.1821C32.522 14.4431 31.4662 12.863 30.1352 11.5321C28.8042 10.2011 27.2241 9.14531 25.4851 8.42499C25.2013 8.30743 24.9142 8.19919 24.6242 8.10034C24.872 8.7033 24.9995 9.34893 24.9995 10.0009C24.9995 10.1296 24.9945 10.2581 24.9846 10.3861ZM29.437 32.4556C28.7908 32.3688 28.1678 32.1564 27.6031 31.8303C27.4917 31.766 27.3829 31.6975 27.2771 31.6249C26.4867 32.2026 25.6284 32.6854 24.7198 33.0618C23.2234 33.6816 21.6197 34.0006 20 34.0006C18.3804 34.0006 16.7766 33.6816 15.2803 33.0618C14.3714 32.6853 13.513 32.2024 12.7224 31.6246C12.6164 31.6972 12.5075 31.7659 12.3959 31.8303C11.8314 32.1562 11.2088 32.3686 10.563 32.4555C11.7362 33.4818 13.0708 34.3114 14.5149 34.9095C16.2539 35.6299 18.1177 36.0006 20 36.0006C21.8823 36.0006 23.7462 35.6299 25.4852 34.9095C26.9292 34.3114 28.2637 33.4819 29.437 32.4556Z" fill="#08061F"/>
</svg>